<svg width="48" height="48" viewBox="0 0 48 48" fill="none" xmlns="http://www.w3.org/2000/svg">
<path d="M8.8502 8.8502L15.0511 13.0018C14.5858 13.8601 14.4148 14.9057 14.6969 16.0308C14.8296 16.5604 14.8236 17.0927 14.7012 17.5892L8.8502 8.8502ZM14.8035 19.5395L15.4068 20.4406L12.2271 21.07C12.3817 21 12.5464 20.9394 12.7214 20.8895C13.5654 20.6486 14.2779 20.1667 14.8035 19.5395ZM2.57494 24L9.59981 22.6094C9.29917 23.5064 9.29917 24.4936 9.59981 25.3905L2.57494 24ZM12.7214 27.1105C12.5464 27.0606 12.3817 27 12.2271 26.93L15.4068 27.5594L14.8035 28.4605C14.2779 27.8333 13.5654 27.3514 12.7214 27.1105ZM8.8502 39.1498L14.7012 30.4108C14.8236 30.9073 14.8296 31.4396 14.6969 31.9692C14.4148 33.0943 14.5858 34.1399 15.0511 34.9982L8.8502 39.1498ZM20.9925 35.3815C19.5711 36.6953 17.6148 36.4084 16.4721 35.2502L20.4406 32.5932L20.9925 35.3815ZM24 45.4251L22.0862 35.757C23.2217 34.9219 24.7783 34.9219 25.9138 35.757L24 45.4251ZM31.5279 35.2502C30.3852 36.4084 28.4289 36.6953 27.0075 35.3815L27.5594 32.5932L31.5279 35.2502ZM39.1498 39.1498L32.9489 34.9982C33.4142 34.1399 33.5852 33.0943 33.3031 31.9692C33.1704 31.4396 33.1764 30.9073 33.2988 30.4108L39.1498 39.1498ZM35.2786 27.1105C34.4346 27.3514 33.7221 27.8333 33.1965 28.4605L32.5932 27.5594L35.7729 26.93C35.6183 27 35.4536 27.0606 35.2786 27.1105ZM45.4251 24L38.4002 25.3906C38.7008 24.4936 38.7008 23.5064 38.4002 22.6094L45.4251 24ZM35.2786 20.8895C35.4536 20.9394 35.6183 21 35.7729 21.07L32.5932 20.4406L33.1965 19.5395C33.7221 20.1667 34.4346 20.6486 35.2786 20.8895ZM39.1498 8.8502L33.2988 17.5892C33.1764 17.0927 33.1704 16.5604 33.3031 16.0308C33.5852 14.9057 33.4142 13.8601 32.9489 13.0018L39.1498 8.8502ZM27.0075 12.6185C28.4289 11.3047 30.3852 11.5916 31.5279 12.7498L27.5594 15.4068L27.0075 12.6185ZM20.4406 15.4068L16.4721 12.7498C17.6148 11.5916 19.5711 11.3047 20.9925 12.6185L20.4406 15.4068ZM22.0862 12.243L24 2.57494L25.9138 12.243C24.7783 13.0781 23.2217 13.0781 22.0862 12.243Z" stroke="black"/>
</svg>
